<?xml version="1.0" encoding="UTF-8" standalone="no"?>
<svg
   xmlns:dc="http://purl.org/dc/elements/1.1/"
   xmlns:cc="http://creativecommons.org/ns#"
   xmlns:rdf="http://www.w3.org/1999/02/22-rdf-syntax-ns#"
   xmlns:svg="http://www.w3.org/2000/svg"
   xmlns="http://www.w3.org/2000/svg"
   xmlns:sodipodi="http://sodipodi.sourceforge.net/DTD/sodipodi-0.dtd"
   xmlns:inkscape="http://www.inkscape.org/namespaces/inkscape"
   inkscape:export-ydpi="108.42353"
   inkscape:export-xdpi="108.42353"
   inkscape:export-filename="C:\Users\francesco\Desktop\icon-192.png"
   sodipodi:docname="cuppe.svg"
   inkscape:version="1.0 (4035a4fb49, 2020-05-01)"
   id="svg8"
   version="1.1"
   viewBox="0 0 44.979166 44.979165"
   height="170"
   width="170">
  <defs
     id="defs2">
    <inkscape:path-effect
       simplify_just_coalesce="false"
       simplify_individual_paths="false"
       helper_size="0"
       smooth_angles="360"
       threshold="0.000408163"
       steps="1"
       lpeversion="1"
       is_visible="true"
       id="path-effect1061"
       effect="simplify" />
    <inkscape:path-effect
       simplify_just_coalesce="false"
       simplify_individual_paths="false"
       helper_size="0"
       smooth_angles="360"
       threshold="0.000408163"
       steps="1"
       lpeversion="1"
       is_visible="true"
       id="path-effect1043"
       effect="simplify" />
    <inkscape:path-effect
       simplify_just_coalesce="false"
       simplify_individual_paths="false"
       helper_size="0"
       smooth_angles="360"
       threshold="0.000408163"
       steps="1"
       lpeversion="1"
       is_visible="true"
       id="path-effect1039"
       effect="simplify" />
    <inkscape:path-effect
       simplify_just_coalesce="false"
       simplify_individual_paths="false"
       helper_size="0"
       smooth_angles="360"
       threshold="0.000408163"
       steps="1"
       lpeversion="1"
       is_visible="true"
       id="path-effect1035"
       effect="simplify" />
    <inkscape:path-effect
       simplify_just_coalesce="false"
       simplify_individual_paths="false"
       helper_size="0"
       smooth_angles="360"
       threshold="0.000408163"
       steps="1"
       lpeversion="1"
       is_visible="true"
       id="path-effect1031"
       effect="simplify" />
    <inkscape:path-effect
       simplify_just_coalesce="false"
       simplify_individual_paths="false"
       helper_size="0"
       smooth_angles="360"
       threshold="0.000408163"
       steps="1"
       lpeversion="1"
       is_visible="true"
       id="path-effect1009"
       effect="simplify" />
    <inkscape:path-effect
       simplify_just_coalesce="false"
       simplify_individual_paths="false"
       helper_size="0"
       smooth_angles="360"
       threshold="0.000408163"
       steps="1"
       lpeversion="1"
       is_visible="true"
       id="path-effect1005"
       effect="simplify" />
    <inkscape:path-effect
       simplify_just_coalesce="false"
       simplify_individual_paths="false"
       helper_size="0"
       smooth_angles="360"
       threshold="0.000408163"
       steps="1"
       lpeversion="1"
       is_visible="true"
       id="path-effect1001"
       effect="simplify" />
    <inkscape:path-effect
       simplify_just_coalesce="false"
       simplify_individual_paths="false"
       helper_size="0"
       smooth_angles="360"
       threshold="0.000408163"
       steps="1"
       lpeversion="1"
       is_visible="true"
       id="path-effect997"
       effect="simplify" />
    <inkscape:path-effect
       simplify_just_coalesce="false"
       simplify_individual_paths="false"
       helper_size="0"
       smooth_angles="360"
       threshold="0.000408163"
       steps="1"
       lpeversion="1"
       is_visible="true"
       id="path-effect977"
       effect="simplify" />
    <inkscape:path-effect
       simplify_just_coalesce="false"
       simplify_individual_paths="false"
       helper_size="0"
       smooth_angles="360"
       threshold="0.000408163"
       steps="1"
       lpeversion="1"
       is_visible="true"
       id="path-effect943"
       effect="simplify" />
    <inkscape:path-effect
       simplify_just_coalesce="false"
       simplify_individual_paths="false"
       helper_size="0"
       smooth_angles="360"
       threshold="0.000408163"
       steps="1"
       lpeversion="1"
       is_visible="true"
       id="path-effect927"
       effect="simplify" />
    <inkscape:path-effect
       simplify_just_coalesce="false"
       simplify_individual_paths="false"
       helper_size="0"
       smooth_angles="360"
       threshold="0.000408163"
       steps="1"
       lpeversion="1"
       is_visible="true"
       id="path-effect902"
       effect="simplify" />
    <inkscape:path-effect
       simplify_just_coalesce="false"
       simplify_individual_paths="false"
       helper_size="0"
       smooth_angles="360"
       threshold="0.000408163"
       steps="1"
       lpeversion="1"
       is_visible="true"
       id="path-effect896"
       effect="simplify" />
    <inkscape:path-effect
       simplify_just_coalesce="false"
       simplify_individual_paths="false"
       helper_size="0"
       smooth_angles="360"
       threshold="0.000408163"
       steps="1"
       lpeversion="1"
       is_visible="true"
       id="path-effect892"
       effect="simplify" />
    <inkscape:path-effect
       simplify_just_coalesce="false"
       simplify_individual_paths="false"
       helper_size="0"
       smooth_angles="360"
       threshold="0.000408163"
       steps="1"
       lpeversion="1"
       is_visible="true"
       id="path-effect883"
       effect="simplify" />
    <inkscape:path-effect
       simplify_just_coalesce="false"
       simplify_individual_paths="false"
       helper_size="0"
       smooth_angles="360"
       threshold="0.000408163"
       steps="1"
       lpeversion="1"
       is_visible="true"
       id="path-effect879"
       effect="simplify" />
    <inkscape:path-effect
       simplify_just_coalesce="false"
       simplify_individual_paths="false"
       helper_size="0"
       smooth_angles="360"
       threshold="0.000408163"
       steps="1"
       lpeversion="1"
       is_visible="true"
       id="path-effect875"
       effect="simplify" />
    <pattern
       id="EMFhbasepattern"
       patternUnits="userSpaceOnUse"
       width="6"
       height="6"
       x="0"
       y="0" />
    <filter
       width="1.2884532"
       x="-0.14422658"
       id="filter1306"
       style="color-interpolation-filters:sRGB"
       inkscape:label="Dark and Glow"
       inkscape:menu="Shadows and Glows"
       inkscape:menu-tooltip="Darkens the edge with an inner blur and adds a flexible glow"
       height="1.2562637"
       y="-0.12813184">
      <feGaussianBlur
         id="feGaussianBlur1296"
         result="result6"
         stdDeviation="0.44762177" />
      <feComposite
         id="feComposite1298"
         in2="result6"
         operator="atop"
         in="SourceGraphic"
         result="result8" />
      <feComposite
         id="feComposite1300"
         in="result8"
         in2="SourceAlpha"
         operator="over"
         result="result9" />
      <feColorMatrix
         id="feColorMatrix1302"
         result="result10"
         values="1 0 0 0 0 0 1 0 0 0 0 0 1 0 0 0 0 0 1 0 " />
      <feBlend
         id="feBlend1304"
         in2="result6"
         mode="normal"
         in="result10" />
    </filter>
  </defs>
  <sodipodi:namedview
     inkscape:window-maximized="1"
     inkscape:window-y="-8"
     inkscape:window-x="-8"
     inkscape:window-height="1017"
     inkscape:window-width="1920"
     units="px"
     fit-margin-bottom="0"
     fit-margin-right="0"
     fit-margin-left="0"
     fit-margin-top="0"
     showgrid="false"
     inkscape:document-rotation="0"
     inkscape:current-layer="layer1"
     inkscape:document-units="mm"
     inkscape:cy="72.834276"
     inkscape:cx="23.319079"
     inkscape:zoom="2.8"
     inkscape:pageshadow="2"
     inkscape:pageopacity="0.0"
     borderopacity="1.0"
     bordercolor="#666666"
     pagecolor="#ffffff"
     id="base" />
  <metadata
     id="metadata5">
    <rdf:RDF>
      <cc:Work
         rdf:about="">
        <dc:format>image/svg+xml</dc:format>
        <dc:type
           rdf:resource="http://purl.org/dc/dcmitype/StillImage" />
        <dc:title></dc:title>
      </cc:Work>
    </rdf:RDF>
  </metadata>
  <g
     transform="translate(-270.70002,-76.803029)"
     id="layer1"
     inkscape:groupmode="layer"
     inkscape:label="Livello 1">
    <path
       sodipodi:nodetypes="cccccccccccccccccccccccccccccc"
       d="m 282.01748,105.83333 c -1.0734,-0.92819 -2.25638,-1.7087 -2.9115,-2.99311 -0.73914,-0.80071 -0.71372,-1.87099 -0.69726,-2.907203 0.15531,-0.992664 -0.20842,-2.337472 0.4643,-3.041664 0.42664,-0.746338 1.07212,-1.500775 1.53825,-2.208328 0.41696,-1.043509 0.85352,-2.140546 1.07571,-3.289429 0.49073,-1.314582 -0.8849,-3.254408 0.95669,-3.907189 1.70283,-0.524595 3.36696,-1.377715 5.19061,-1.293534 1.47233,-0.431424 3.00018,-0.466774 4.52697,-0.56168 0.96065,-0.02649 1.97288,-0.07952 2.23254,0.124679 1.33964,-0.03063 2.6363,0.296484 3.96579,0.412622 1.72553,0.22708 3.71559,0.707444 4.60054,2.381254 0.84113,1.255192 1.92166,2.319744 2.78464,3.579613 0.71109,0.528405 1.69674,0.130642 2.19988,0.919391 0.40647,0.574215 0.54363,1.085051 0.70161,1.64983 0.44851,1.495481 0.2118,3.071577 0.40421,4.594645 0.0922,1.176733 -0.0716,2.641033 -1.05442,3.368723 -0.52676,0.44068 -0.67219,0.77192 -0.93793,1.30927 -0.77256,0.43965 -0.80117,1.69926 -1.33388,2.43005 -1.1709,0.98281 -1.81509,1.77553 -1.67527,3.48521 -0.51177,1.28113 -0.13759,2.80834 -1.01086,3.92673 -0.44057,1.03957 -1.20659,1.94306 -2.24897,2.47807 -1.03828,0.62805 -2.03711,1.29134 -3.32182,1.00352 -1.69214,0.3517 -3.27249,-0.15276 -4.92548,-0.36661 -1.44312,0.44276 -3.09711,0.23139 -4.11591,-0.99967 -0.89286,-0.81048 -1.87997,-1.62853 -2.45142,-2.68213 -0.6994,-1.21216 -1.37669,-2.52668 -1.73154,-3.91489 -0.63058,-1.14557 -1.16775,-2.39575 -2.07382,-3.34896 l -0.15123,-0.14929 z"
       style="fill:#b38878;fill-opacity:1;stroke:none;stroke-width:0.264583px;stroke-linecap:butt;stroke-linejoin:miter;stroke-opacity:1"
       id="path995" />
    <path
       sodipodi:nodetypes="sccccccccccs"
       d="m 290.71094,97.163503 c -0.0845,-0.460379 -0.57317,-0.694059 -0.99822,-0.737353 -0.30954,-0.01766 -0.60524,-0.101919 -0.89912,-0.193516 -0.45553,-0.12367 -0.9325,-0.156348 -1.40059,-0.108352 -0.60477,-0.02786 -1.25449,-0.06329 -1.80104,0.244601 -0.54067,0.142453 -1.13417,0.231988 -1.56323,0.622473 -0.16699,0.284087 0.17451,0.557102 0.44561,0.437479 0.40464,-0.06132 0.70831,-0.496435 1.1191,-0.512953 1.00002,-0.249832 2.0984,-0.356475 3.29153,-0.110785 0.71865,0.183746 1.09951,0.537453 1.76678,0.372912 l 0.0392,-0.0145 z"
       style="fill:#000000;fill-opacity:1;stroke:#000000;stroke-width:0.264583px;stroke-linecap:butt;stroke-linejoin:miter;stroke-opacity:1"
       id="path1003" />
    <path
       sodipodi:nodetypes="sccccccccccccccccccccccccccccccccccccsscccccccccccccc"
       d="m 293.6598,77.361094 c -2.14432,0.846921 -4.51814,-0.866669 -6.56208,0.531382 -1.86865,0.09875 -3.3819,1.035406 -4.55367,2.440423 -1.70158,1.199245 -3.49874,2.719923 -3.67075,4.952869 0.48758,1.87593 -2.03544,2.525946 -1.42623,4.550995 -0.0975,2.015883 0.859,3.919784 0.4885,5.918328 -0.28591,1.83221 2.54159,1.508041 2.57094,3.501269 0.86128,2.16269 0.94801,4.5323 1.11515,6.82355 0.68713,1.80996 1.18127,3.64469 1.54172,5.58218 0.50377,1.76454 1.85466,3.02107 2.56166,4.68342 1.08691,1.39052 2.80725,2.5463 4.34026,3.50254 1.50972,1.33653 3.19584,0.87175 5.07572,1.2754 1.77485,-0.0135 3.82512,-0.87687 5.43839,-1.90451 0.96277,-1.63478 2.67887,-2.53427 3.57748,-4.24388 1.3959,-2.47254 1.92617,-5.33853 2.40558,-8.10708 0.27402,-1.92828 0.13453,-3.85017 -0.2156,-5.75494 0.21935,1.64823 -0.60691,3.40239 -2.3486,3.621 -1.19446,1.32593 -1.07793,3.24572 -0.77837,4.87982 0.39441,1.58721 -1.57049,2.36532 -1.71837,0.41798 -0.8345,-2.0353 -3.3825,-0.52116 -4.88961,-1.48649 -1.2877,-1.30078 -2.67315,0.44932 -4.09517,-0.42403 -1.69794,1.12829 -4.75816,1.69249 -4.74638,4.19295 -1.26504,1.43775 -1.91874,-1.00969 -1.67288,-2.00559 -0.63724,-1.75356 -1.25476,-3.6289 -2.41444,-5.103 -1.53465,-0.92944 -1.80499,-2.54173 -1.90641,-4.18374 -0.27701,-2.131998 0.49641,-4.218798 0.71514,-6.338234 0.55491,-1.915908 -0.94681,-3.981594 0.0569,-5.765397 2.20028,0.322893 5.11316,1.342463 6.74483,-0.709565 2.07897,-1.708403 4.76117,-0.59899 7.08391,-0.212141 2.25911,0.482088 4.86951,0.234473 6.62148,2.04905 1.96296,1.52305 2.13097,4.070524 2.9241,6.224159 0.51513,0.800637 0.38366,2.759247 0.49431,3.05675 0.23377,-1.575127 1.25111,-2.695439 1.72541,-4.214328 0.4798,-2.582178 0.89315,-4.199496 0.47602,-6.076583 -0.14205,-2.242557 -1.608,-3.99594 -2.75254,-5.806145 -1.49624,-1.597407 -3.44795,-2.655583 -5.17024,-3.981777 -1.62483,-1.066145 -3.32384,-2.314668 -5.3953,-1.970473 -0.54742,0.01846 -1.09362,0.06112 -1.64084,0.08384 z m -11.63059,25.778786 0.004,0.047 z m 11.83752,7.27759 c 1.52593,0.6884 3.18992,0.40821 4.75825,0.1407 1.77385,-0.29356 3.96474,1.79983 2.74891,3.41615 -1.6388,0.32168 -1.86967,1.88646 -2.87827,2.65007 -1.32729,0.5391 -2.76124,-1.10339 -0.86604,-1.31931 1.14272,-1.10029 0.16307,-2.45326 -1.20431,-1.65242 -1.09734,0.36736 -4.41822,-0.98734 -3.74728,0.82308 0.74261,0.64743 3.10703,1.28111 0.97512,1.81854 -1.32879,0.46891 -3.56821,1.11327 -4.16779,-0.69126 -0.70099,-1.42306 -1.42555,-4.29581 0.94478,-4.46704 1.12652,-0.17822 2.26612,-0.60709 3.43663,-0.71851 z"
       style="fill:#000000;fill-opacity:1;stroke:#000000;stroke-width:0.264583px;stroke-linecap:butt;stroke-linejoin:miter;stroke-opacity:1"
       id="path881" />
    <path
       inkscape:original-d="m 289.62424,111.62109 c 0.10224,-0.12741 0.72369,-0.10946 0.75597,-0.14174 0.006,-0.006 -0.006,-0.0181 0,-0.0236 0.0119,-0.0118 0.079,-0.008 0.0945,-0.0236 0.0111,-0.0111 -0.0111,-0.0361 0,-0.0473 0.0356,-0.0356 0.14306,-0.0952 0.189,-0.11812 0.014,-0.007 0.0361,0.0111 0.0473,0 0.0153,-0.0155 0.0354,-0.059 0.0472,-0.0709 0.0111,-0.0111 0.0332,0.007 0.0473,0 0.056,-0.028 0.10584,-0.12686 0.16537,-0.14174 0.0382,-0.01 0.0799,0.01 0.11811,0 0.0172,-0.004 0.0315,-0.0157 0.0473,-0.0236 0.0236,-0.008 0.0467,-0.0176 0.0709,-0.0236 0.22942,-0.0574 0.007,0.002 0.23622,-0.0236 0.0645,-0.007 0.1247,-0.0381 0.189,-0.0473 0.0772,-0.011 0.15906,0.011 0.23624,0 0.0643,-0.009 0.12494,-0.0366 0.18897,-0.0473 0.0788,-0.0131 0.0198,0.0197 0.11813,0 0.11922,-0.0238 0.20529,-0.11666 0.33073,-0.14174 0.0441,-0.009 0.10221,-0.004 0.14174,-0.0236 0.007,-0.004 -0.004,-0.0171 0,-0.0236 0.0124,-0.0186 0.0287,-0.0349 0.0472,-0.0473 0.0196,-0.0131 0.048,0.006 0.0709,0 0.0683,-0.0171 0.14346,-0.0593 0.21262,-0.0709 0.13875,-0.0231 0.25747,-0.0342 0.37798,-0.0945 0.0196,-0.01 0.0795,0.015 0.0945,0 0.006,-0.006 -0.006,-0.0181 0,-0.0236 0.023,-0.023 0.2296,0 0.25984,0 0.18963,0 0.27276,-0.0172 0.44887,0.0709 0.0589,0.0295 0.43664,0 0.51972,0 0.20487,0 0.59629,0.0366 0.77957,0 0.0357,-0.007 0.38647,-0.0397 0.40158,-0.0473 0.0101,-0.005 0.013,-0.0209 0.0236,-0.0236 0.0786,-0.0197 0.39341,0.004 0.44887,-0.0236 0.0233,-0.0117 0.0464,-0.0391 0.0708,-0.0473 0.1134,-0.0378 0.26458,0.0378 0.37799,0 0.0519,-0.0173 0.0993,-0.0368 0.16536,-0.0236 0.13859,0.0277 0.28443,0.0357 0.42521,0.0709 0.11062,0.0277 0.24175,-0.0188 0.35436,0 0.0451,0.007 0.19788,0.009 0.21262,0.0236 0.006,0.006 -0.006,0.018 0,0.0236 0.0111,0.0111 0.0323,-0.005 0.0473,0 0.0167,0.006 0.03,0.0202 0.0472,0.0236 0.0541,0.0108 0.11068,-0.007 0.16536,0 0.1474,0.0184 0.25975,0.1299 0.40162,0.16536 0.0198,0.005 0.0738,-0.0103 0.0945,0 0.0574,0.0287 0.0488,0.0356 0.14174,0.0473 0.0902,0.0113 0.19523,-0.0221 0.2835,0 0.0673,0.0168 0.30787,0.0871 0.35435,0.11812 0.0409,0.0273 0.0737,0.0723 0.11811,0.0945 0.0319,0.016 0.22051,0.008 0.23622,0.0236 0.006,0.006 -0.12223,0.0986 -0.14173,0.11812 -0.028,0.028 -0.0827,0.10641 -0.0945,0.14174 -0.007,0.0224 0.0167,0.0542 0,0.0709 -0.0138,0.0137 -0.0808,0.0336 -0.0945,0.0473 -0.0145,0.0145 -0.0313,0.0943 -0.0472,0.11812 -0.0793,0.11891 -0.23903,0.38636 -0.28351,0.51971 -0.0119,0.0361 -0.0119,0.0832 -0.0235,0.11812 -0.0151,0.0449 -0.0883,0.056 -0.11814,0.0709 -0.0983,0.0492 0.0251,-0.002 -0.0236,0.0472 -0.0175,0.0176 -0.0533,0.006 -0.0709,0.0236 -0.006,0.006 0.007,0.0201 0,0.0236 -0.014,0.007 -0.0323,-0.005 -0.0473,0 -0.0212,0.007 -0.0273,0.0373 -0.0473,0.0472 -0.097,0.0485 -0.1836,0.11543 -0.28348,0.16536 -0.0379,0.0189 -0.0837,0.0197 -0.11811,0.0473 -0.0522,0.0417 -0.087,0.10342 -0.14173,0.14174 -0.20741,0.14517 -0.49176,0.21976 -0.73234,0.25986 -0.11428,0.0191 -0.20027,0.0767 -0.30711,0.0945 -0.0311,0.005 -0.0639,-0.008 -0.0945,0 -0.0342,0.009 -0.0603,0.0387 -0.0945,0.0472 -0.0306,0.008 -0.0632,-0.003 -0.0945,0 -0.157,0.0157 -0.32023,0.0641 -0.47247,0.0945 -0.11345,0.0227 -0.24418,0.0814 -0.35435,0.11812 -0.0766,0.0256 -0.22696,0.0312 -0.30711,0.0472 -0.1828,0.0366 -0.36528,0.0884 -0.54334,0.11812 -0.0368,0.006 -0.12404,-0.005 -0.16537,0 -0.37499,0.0417 -0.78383,0.0467 -1.15755,0 -0.30144,-0.0377 -0.63804,0 -0.94493,0 -0.0934,0 -0.21672,0.0201 -0.30713,0 -0.13002,-0.0289 -0.29001,-0.0843 -0.42521,-0.11812 -0.0439,-0.011 -0.26181,-0.0256 -0.28348,-0.0472 -0.006,-0.006 0.006,-0.018 0,-0.0236 -0.0111,-0.0111 -0.0332,0.007 -0.0473,0 -0.06,-0.03 -0.12425,-0.0938 -0.18899,-0.11811 -0.0805,-0.0302 -0.18804,-0.0466 -0.25985,-0.0945 -0.0817,-0.0545 -0.16851,-0.11968 -0.25988,-0.16536 -0.3226,-0.12904 0.008,0.0213 -0.16536,-0.0945 -0.0132,-0.009 -0.0361,0.0111 -0.0472,0 -0.006,-0.006 0.006,-0.018 0,-0.0236 -0.0487,-0.0487 -0.15925,-0.0884 -0.21262,-0.14174 -0.14052,-0.14053 -0.26008,-0.31506 -0.44884,-0.37798 -0.0455,-0.0152 -0.0959,-0.01 -0.14176,-0.0236 -0.0873,-0.0262 -0.16902,-0.0718 -0.25985,-0.0945 -0.0153,-0.004 -0.0361,0.0111 -0.0472,0 -0.006,-0.006 0.006,-0.018 0,-0.0236 -0.0177,-0.0176 -0.0506,-0.009 -0.0709,-0.0236 -0.0501,-0.0357 -0.0867,-0.0906 -0.14173,-0.11812 -0.0408,-0.0204 -0.0944,-0.0234 -0.11814,-0.0709 -0.0159,-0.0315 0.0159,-0.0866 0,-0.11812 -0.005,-0.01 -0.0254,-0.0127 -0.0236,-0.0236 0.007,-0.0418 0.0315,-0.0787 0.0473,-0.11811 z"
       inkscape:path-effect="#path-effect892"
       id="path890"
       d="m 289.62424,111.62109 c 0.035,-0.0388 0.0875,-0.0547 0.13656,-0.0665 0.14968,-0.0359 0.30431,-0.0415 0.45717,-0.0542 0.0499,-0.004 0.0994,-0.0165 0.14955,-0.0155 0.028,5.1e-4 -7.8e-4,-0.0249 0.0245,-0.0343 0.027,-0.0101 0.0994,0.002 0.0858,-0.0289 -0.009,-0.0194 -0.006,-0.0367 0.0133,-0.0512 0.0537,-0.0405 0.10846,-0.0839 0.17254,-0.10376 0.019,-0.006 0.0362,0.0104 0.0563,-0.0113 0.0199,-0.0214 0.0241,-0.0612 0.0672,-0.0595 0.0447,0.002 0.0724,-0.0464 0.0996,-0.0759 0.0283,-0.0308 0.0601,-0.0704 0.10582,-0.0688 0.0442,0.002 0.0878,0.008 0.13196,-0.0143 0.0502,-0.0252 0.10526,-0.0405 0.16043,-0.0492 0.0162,-0.003 0.0293,-8.3e-4 0.0482,7.8e-4 0.0447,0.004 0.0903,2e-5 0.13415,-0.009 0.0723,-0.0148 0.14078,-0.0478 0.21623,-0.0468 0.0755,9.8e-4 0.15173,0.0129 0.22676,-0.005 0.0595,-0.0142 0.12251,-0.0676 0.17896,-0.0423 0.038,0.0171 0.0807,0.007 0.11911,-0.005 0.1043,-0.0332 0.19014,-0.1071 0.29801,-0.13334 0.047,-0.0114 0.15899,0.0189 0.14413,-0.0281 -0.0101,-0.032 0.0252,-0.071 0.0525,-0.07 0.0344,0.001 0.0673,0.004 0.10223,-0.008 0.0657,-0.0232 0.12966,-0.0522 0.19935,-0.0632 0.11965,-0.0189 0.23829,-0.0446 0.35219,-0.0903 0.0305,-0.0122 0.11027,0.0267 0.0962,-0.005 -0.0138,-0.0316 0.0348,-0.0277 0.0533,-0.0282 0.0743,-0.002 0.14816,0.0101 0.22234,0.01 0.10695,-1.6e-4 0.21489,-0.002 0.32033,0.0248 0.0473,0.0122 0.0875,0.0469 0.13554,0.053 0.0855,0.0109 0.17202,0.006 0.25789,0.003 0.10929,-0.004 0.21844,-0.0115 0.32794,-0.008 0.19634,0.006 0.39283,0.0205 0.58934,0.0105 0.0589,-0.003 0.11675,-0.0148 0.17533,-0.0215 0.10641,-0.0122 0.21884,9e-4 0.31929,-0.0363 0.0193,-0.007 0.0264,-0.0268 0.0527,-0.0292 0.12744,-0.0114 0.25534,-0.0135 0.38326,-0.0102 0.0388,0.001 0.0646,-0.0296 0.0958,-0.0476 0.0399,-0.0231 0.0886,-0.0218 0.13316,-0.0183 0.0819,0.006 0.16613,0.0375 0.24672,0.0137 0.0513,-0.0151 0.1031,-0.0403 0.15761,-0.0317 0.0563,0.009 0.11238,0.0194 0.16893,0.027 0.0992,0.0133 0.19718,0.0335 0.29591,0.0508 0.11582,0.0203 0.23129,-0.0149 0.34833,-0.002 0.0637,0.007 0.12726,0.0194 0.19144,0.0174 0.0263,-8e-4 -8.8e-4,0.0421 0.0215,0.0325 0.029,-0.0124 0.0508,0.0111 0.0783,0.0179 0.0633,0.0156 0.12799,-0.007 0.19214,0.005 0.13815,0.0258 0.24174,0.15559 0.38112,0.16218 0.0434,0.002 0.0854,-0.008 0.12779,0.0178 0.0402,0.0244 0.0884,0.0298 0.13418,0.0315 0.0935,0.003 0.18805,-0.022 0.28096,0.004 0.0999,0.028 0.19806,0.062 0.29656,0.095 0.0644,0.0216 0.0945,0.10215 0.16045,0.11429 0.0709,0.0131 0.14372,0.007 0.21513,0.016 0.0302,0.004 -0.009,0.0273 -0.0182,0.0352 -0.038,0.0319 -0.0836,0.0557 -0.11575,0.0935 -0.035,0.0413 -0.0802,0.0822 -0.089,0.13592 -0.005,0.028 0.0204,0.0633 -0.0187,0.0821 -0.036,0.0174 -0.082,0.0264 -0.0929,0.0735 -0.0119,0.0512 -0.0403,0.0946 -0.0678,0.13884 -0.0816,0.13121 -0.15653,0.26661 -0.22413,0.40578 -0.0211,0.0434 -0.0375,0.0902 -0.037,0.13826 6e-4,0.0626 -0.0647,0.0812 -0.11331,0.10102 -0.0178,0.007 -0.0697,0.0208 -0.0513,0.0267 0.01,0.003 0.0326,-0.002 0.0219,0.0179 -0.0164,0.0311 -0.0943,0.008 -0.0797,0.0374 0.0147,0.0294 -0.0255,0.012 -0.04,0.0167 -0.0318,0.0103 -0.0438,0.0431 -0.0756,0.06 -0.0938,0.0499 -0.1741,0.12744 -0.27547,0.16 -0.0449,0.0144 -0.0917,0.0266 -0.1269,0.0618 -0.0453,0.0454 -0.0833,0.0984 -0.13806,0.13429 -0.16594,0.1089 -0.35799,0.16917 -0.54977,0.21482 -0.066,0.0157 -0.13351,0.0237 -0.19945,0.0392 -0.0962,0.0227 -0.1827,0.0897 -0.28229,0.0881 -0.0378,-6.2e-4 -0.0788,-0.0115 -0.11295,0.0121 -0.0326,0.0225 -0.0696,0.0416 -0.11131,0.0358 -0.0507,-0.007 -0.10153,0.004 -0.15126,0.0126 -0.13294,0.0236 -0.26449,0.054 -0.39561,0.086 -0.11754,0.0287 -0.22551,0.0878 -0.34265,0.11674 -0.11276,0.0279 -0.22963,0.0292 -0.34332,0.0533 -0.16662,0.0354 -0.32928,0.0976 -0.49941,0.10839 -0.0614,0.004 -0.12266,-0.005 -0.18432,0.002 -0.38747,0.0405 -0.77869,0.0325 -1.16661,-0.007 -0.30556,-0.031 -0.61226,3.1e-4 -0.91829,0.004 -0.10953,0.001 -0.22063,0.0192 -0.32929,-0.007 -0.13602,-0.0332 -0.26619,-0.0906 -0.40439,-0.11299 -0.0853,-0.0138 -0.17057,-0.0276 -0.2567,-0.0373 -0.0138,-0.002 -0.008,-0.0121 -0.0149,-0.0262 -0.0116,-0.0229 -0.037,0.002 -0.0603,-0.0112 -0.07,-0.0403 -0.13,-0.0978 -0.20902,-0.12288 -0.0858,-0.0272 -0.17523,-0.0478 -0.25163,-0.0993 -0.0796,-0.0536 -0.15441,-0.11803 -0.24421,-0.15275 -0.0468,-0.0181 -0.18499,-0.0771 -0.14094,-0.0531 0.008,0.004 0.0506,0.0139 0.0318,-0.002 -0.0243,-0.02 -0.0474,-0.0333 -0.0858,-0.0335 -0.024,-6e-5 -0.002,-0.0212 -0.02,-0.0361 -0.07,-0.0568 -0.15826,-0.0867 -0.22242,-0.15268 -0.1094,-0.11244 -0.20674,-0.24209 -0.34545,-0.3209 -0.0501,-0.0285 -0.10559,-0.0466 -0.16351,-0.0504 -0.0762,-0.005 -0.14318,-0.0461 -0.21469,-0.0687 -0.0466,-0.0147 -0.0925,-0.0317 -0.14446,-0.032 -0.024,-1.8e-4 0.003,-0.0282 -0.0172,-0.0332 -0.0344,-0.008 -0.0671,-0.0179 -0.0949,-0.0438 -0.0432,-0.0403 -0.0826,-0.0925 -0.14279,-0.10542 -0.0494,-0.0106 -0.0996,-0.049 -0.0873,-0.10884 0.006,-0.0288 -0.0176,-0.0455 -0.0199,-0.0839 -0.003,-0.044 0.0312,-0.0844 0.0449,-0.12498 z"
       style="fill:#8f4f60;fill-opacity:1;stroke:none;stroke-width:0.264583px;stroke-linecap:butt;stroke-linejoin:miter;stroke-opacity:1" />
    <path
       sodipodi:nodetypes="ccccc"
       d="m 295.93172,96.66741 c 1.4399,-0.888962 3.11031,-1.064396 4.78356,-1.116984 0.83741,-0.08456 4.08375,1.275735 1.13963,1.026299 -0.74831,-0.483959 -2.48468,-0.288942 -3.73901,0.06733 -0.67093,0.114492 -1.60888,0.489884 -2.18418,0.02335 z"
       style="fill:#000000;fill-opacity:1;stroke:#000000;stroke-width:0.264583px;stroke-linecap:butt;stroke-linejoin:miter;stroke-opacity:1"
       id="path1007" />
    <path
       d="m 290.71552,103.37351 c -0.14818,0.90549 -0.56242,2.32599 0.48143,2.8266 1.19176,-0.10908 1.87106,0.84785 2.9075,1.10514 1.18359,-0.0877 1.88469,-1.12084 3.09813,-1.22803 0.82057,-0.64747 1.03023,-2.12425 0.33922,-2.96791 -0.89914,-0.72504 -1.96356,-1.42099 -2.23044,-2.64743 0.11998,-1.392378 -1.15563,-1.766169 -2.27465,-1.419852 -1.29736,0.228236 -0.52166,1.970502 -1.28951,2.850292 -0.13159,0.65347 -1.06604,0.82793 -1.03168,1.48119 z"
       style="opacity:1;mix-blend-mode:normal;fill:none;stroke:#000000;stroke-width:0.264583px;stroke-linecap:butt;stroke-linejoin:miter;stroke-opacity:1;filter:url(#filter1306)"
       id="path1059" />
    <path
       d="m 305.98795,94.410699 -2.23292,2.719215 c -0.33454,-0.355401 -0.75613,-0.563604 -1.18547,-0.730705 -0.47646,-0.18543 -0.96501,-0.326914 -1.37665,-0.556556 l -0.0372,-0.0217 -0.0429,0.0062 c -1.38393,0.17612 -2.98347,-0.142822 -4.30876,0.679546 l -0.003,0.0021 -0.004,0.0016 c -0.6707,0.468714 -1.21936,1.165309 -1.51929,1.9451 -0.0967,-0.06123 -0.2004,-0.105963 -0.30488,-0.138491 l -0.0119,-0.0036 -0.0135,-0.0021 c -0.44154,-0.04937 -0.94652,-0.185963 -1.45161,-0.224793 -0.46038,-0.0354 -0.93049,0.0173 -1.33739,0.30489 -0.0584,-0.121184 -0.12544,-0.24185 -0.2036,-0.361217 l -0.006,-0.0057 -0.004,-0.0062 c -1.41157,-1.679482 -3.90741,-1.919221 -5.91437,-1.609204 h -0.002 c -1.29936,0.115822 -2.17648,0.957342 -2.57039,2.011762 -0.0423,0.113189 -0.076,0.229701 -0.10748,0.347266 -0.68981,-0.645768 -1.53723,-1.116116 -2.37867,-1.489832 l -0.008,-0.0041 -0.008,-0.0021 c -0.47911,-0.147645 -0.96164,-0.244705 -1.34979,-0.501779 l -0.14624,0.220659 c 0.44128,0.292267 0.94802,0.391012 1.40611,0.531233 0.86707,0.385289 1.73055,0.869043 2.40244,1.531173 l 0.0243,-0.02479 c -0.17806,0.908555 -0.0495,1.900314 0.41289,2.728004 0.39741,1.04096 1.21202,1.72579 2.16628,2.10374 0.95639,0.3788 2.05369,0.45849 3.04477,0.30644 h 0.003 l 0.004,-0.002 c 0.39179,-0.0748 0.77396,-0.20922 1.12088,-0.41393 l 0.01,-0.006 0.008,-0.008 c 0.77708,-0.65617 1.58263,-1.55033 2.03346,-2.5492 0.36345,-0.80529 0.49051,-1.68908 0.17002,-2.5461 0.35319,-0.273182 0.76271,-0.325903 1.21078,-0.291455 0.4648,0.03574 0.95727,0.168717 1.42367,0.222724 0.10621,0.03372 0.20379,0.08133 0.28681,0.144179 -0.19706,0.646814 -0.22143,1.338102 0.003,1.998332 l 0.003,0.01 0.006,0.009 c 0.6845,1.32072 2.00808,2.15794 3.30473,2.71508 l 0.0196,0.008 0.0196,0.002 c 1.29943,0.13688 2.82689,0.41143 4.02715,-0.4377 l 0.014,-0.01 0.0114,-0.0134 c 0.62367,-0.73047 1.58697,-1.44118 1.68775,-2.56625 l 0.003,-0.0139 -0.003,-0.0134 c -0.1084,-0.974183 0.0908,-2.064155 -0.36793,-3.052008 l 2.27788,-2.774509 z m -4.88135,1.682067 c 0.43775,0.236244 0.92062,0.378553 1.36737,0.552424 0.45619,0.177554 0.86751,0.392536 1.172,0.763775 0.4445,0.898361 0.2622,1.958229 0.37311,2.999815 -0.0872,0.97388 -0.95615,1.64187 -1.60766,2.39882 -1.08294,0.7621 -2.51209,0.52864 -3.8163,0.39016 -1.25949,-0.54318 -2.51386,-1.34804 -3.15433,-2.57401 -0.47615,-1.420759 0.30974,-3.053336 1.50794,-3.89278 1.20475,-0.745326 2.7247,-0.464412 4.15787,-0.638204 z m -13.51287,0.466641 c 1.55754,0.01617 3.15065,0.450127 4.14186,1.623155 0.62375,0.957241 0.54692,1.953768 0.12144,2.896458 -0.42463,0.94085 -1.20306,1.80991 -1.95543,2.44688 -0.31477,0.18419 -0.66445,0.31024 -1.02526,0.37931 -0.94713,0.14467 -2.00193,0.0664 -2.90422,-0.29094 -0.90349,-0.35785 -1.65209,-0.98901 -2.01951,-1.9575 l -0.004,-0.008 -0.006,-0.01 c -0.5325,-0.94448 -0.60105,-2.146017 -0.23461,-3.126941 0.36644,-0.980927 1.15099,-1.737749 2.35386,-1.841749 h 0.004 0.006 c 0.48762,-0.07542 1.00269,-0.116496 1.52187,-0.111103 z"
       style="color:#000000;font-style:normal;font-variant:normal;font-weight:normal;font-stretch:normal;font-size:medium;line-height:normal;font-family:sans-serif;font-variant-ligatures:normal;font-variant-position:normal;font-variant-caps:normal;font-variant-numeric:normal;font-variant-alternates:normal;font-variant-east-asian:normal;font-feature-settings:normal;font-variation-settings:normal;text-indent:0;text-align:start;text-decoration:none;text-decoration-line:none;text-decoration-style:solid;text-decoration-color:#000000;letter-spacing:normal;word-spacing:normal;text-transform:none;writing-mode:lr-tb;direction:ltr;text-orientation:mixed;dominant-baseline:auto;baseline-shift:baseline;text-anchor:start;white-space:normal;shape-padding:0;shape-margin:0;inline-size:0;clip-rule:nonzero;display:inline;overflow:visible;visibility:visible;opacity:1;isolation:auto;mix-blend-mode:normal;color-interpolation:sRGB;color-interpolation-filters:linearRGB;solid-color:#000000;solid-opacity:1;vector-effect:none;fill:#000000;fill-opacity:1;fill-rule:nonzero;stroke:#624900;stroke-width:0.264583px;stroke-linecap:butt;stroke-linejoin:miter;stroke-miterlimit:4;stroke-dasharray:none;stroke-dashoffset:0;stroke-opacity:1;color-rendering:auto;image-rendering:auto;shape-rendering:auto;text-rendering:auto;enable-background:accumulate;stop-color:#000000;stop-opacity:1"
       id="path960" />
    <path
       sodipodi:nodetypes="cc"
       d="m 289.29351,111.69196 c 4.82414,0.65439 6.30135,0.68372 10.78508,-0.69712"
       style="fill:none;stroke:#000000;stroke-width:0.264583px;stroke-linecap:butt;stroke-linejoin:miter;stroke-opacity:1"
       id="path975" />
    <path
       sodipodi:nodetypes="cccccc"
       d="m 284.31774,99.514808 c 1.03266,-0.77731 2.10885,-1.890679 3.52964,-1.646014 0.95053,0.209377 1.66245,0.159889 2.33054,0.921273 0.29186,1.052272 -0.72883,0.745299 -1.31392,1.03896 -1.03058,0.257163 -2.1145,0.420843 -3.15491,0.112889 -0.476,-0.09493 -0.95516,-0.207739 -1.39135,-0.427108 z"
       style="fill:#ffffff;fill-opacity:1;stroke:#000000;stroke-width:0.264583px;stroke-linecap:butt;stroke-linejoin:miter;stroke-opacity:1"
       id="path1037" />
    <path
       sodipodi:nodetypes="cccccccccccc"
       d="m 297.12165,97.922824 c 0.30406,-0.410669 0.84297,-0.432757 1.30211,-0.513119 0.55034,-0.135312 1.11811,0.03324 1.67398,0.05471 0.34263,-0.01725 0.68059,0.116043 0.93286,0.345997 0.50454,0.06837 0.8409,0.48538 1.16444,0.832304 -0.15456,0.193162 -0.48287,0.296114 -0.71745,0.431672 -0.39421,0.167579 -0.83622,0.149235 -1.23656,0.304361 -0.33868,0.143672 -0.70191,0.132168 -1.0599,0.160193 -0.40741,0.107321 -0.82839,-0.02424 -1.24198,0.01025 -0.39018,-0.167715 -0.90556,-0.108136 -1.2072,-0.431869 -0.10229,-0.102123 -0.0977,-0.197622 -0.0324,-0.288335 0.12955,-0.295577 0.17513,-0.650825 0.42214,-0.906164 z"
       style="fill:#ffffff;fill-opacity:1;stroke:#000000;stroke-width:0.264583px;stroke-linecap:butt;stroke-linejoin:miter;stroke-opacity:1"
       id="path1041" />
    <ellipse
       ry="1.202832"
       rx="1.3916379"
       cy="98.956924"
       cx="287.47235"
       id="path1055"
       style="opacity:1;fill:#000000;fill-opacity:1;fill-rule:evenodd;stroke:none;stroke-width:2.2752;stroke-linecap:round;stroke-linejoin:round;stroke-miterlimit:4;stroke-dasharray:none;stroke-dashoffset:0;stroke-opacity:1;paint-order:normal" />
    <ellipse
       ry="1.063058"
       rx="1.263858"
       cy="98.486427"
       cx="299.20358"
       id="path1057"
       style="opacity:1;fill:#000000;fill-opacity:1;fill-rule:evenodd;stroke:none;stroke-width:1.828;stroke-linecap:round;stroke-linejoin:round;stroke-miterlimit:4;stroke-dasharray:none;stroke-dashoffset:0;stroke-opacity:1;paint-order:normal" />
  </g>
</svg>
